<svg t="1679842713151" class="icon" viewBox="0 0 1024 1024" version="1.1" xmlns="http://www.w3.org/2000/svg" p-id="16108" width="128" height="128"><path d="M677.90710432 82.14977516l-49.01800809-11.31184803-147.05402429 603.29856119c-98.03601619-79.18293616-241.31942448-41.47677609-290.33743257 56.55924012-15.08246403 30.16492806-7.54123201 71.64170414 0 90.49478417 41.47677609 109.34786421 180.98956836 101.8066322 279.02558454 15.08246402 41.47677609-33.93554407 52.7886241-71.64170414 75.41232016-162.13648831l94.2654002-373.29098473c56.55924012 11.31184801 131.97156027 105.57724821 139.51279226 169.67772032 3.770616 41.47677609-7.54123201 94.26540019-37.70616007 124.43032827-7.54123201 7.54123201-30.16492806 33.93554407-18.85308005 33.93554405 22.62369604-3.770616 30.16492806-11.31184801 52.78862411-30.16492806 18.85308003-18.85308003 37.70616007-49.01800811 45.24739209-67.87108814 75.41232014-214.92511243-165.90710432-282.79620057-143.28340829-448.70330487" p-id="16109" data-spm-anchor-id="a313x.7781069.0.i0" class="" fill="#98d00b"></path><path d="M512 1115.29856119c-82.95355218 0-162.13648832-15.08246403-233.77819246-49.01800809-71.64170414-30.16492806-135.74217627-75.41232014-192.30141637-128.20094427-56.55924012-56.55924012-98.03601619-120.65971222-128.20094427-192.30141637-33.93554407-71.64170414-49.01800811-150.82464031-49.01800809-233.77819246s15.08246403-162.13648832 49.01800809-233.77819246c30.16492806-71.64170414 75.41232014-135.74217627 128.20094427-192.30141637 56.55924012-56.55924012 120.65971222-98.03601619 192.30141637-128.20094427 147.05402429-64.10047213 320.50236063-64.10047213 471.32700094 0 71.64170414 30.16492806 135.74217627 75.41232014 192.30141636 128.20094427 56.55924012 56.55924012 98.03601619 120.65971222 128.20094427 192.30141637 30.16492806 75.41232014 49.01800811 154.5952563 49.0180081 233.77819246 0 82.95355218-15.08246403 162.13648832-49.0180081 233.77819246-30.16492806 71.64170414-75.41232014 135.74217627-128.20094427 192.30141637-56.55924012 56.55924012-120.65971222 98.03601619-192.30141636 128.20094427-75.41232014 33.93554407-154.5952563 49.01800811-237.54880848 49.01800809z m0-1131.18480222c-71.64170414 0-139.51279228 15.08246403-203.61326441 41.47677606s-120.65971222 64.10047213-169.67772033 113.11848023-86.72416817 105.57724821-113.11848023 169.67772033S-15.88624103 440.35829586-15.88624103 512s15.08246403 139.51279228 41.47677606 203.61326441c26.39431205 64.10047213 64.10047213 120.65971222 113.11848023 169.67772033s105.57724821 86.72416817 169.67772033 113.11848023c131.97156027 56.55924012 279.02558454 56.55924012 410.99714482 0 64.10047213-26.39431205 120.65971222-64.10047213 169.67772034-113.11848023s86.72416817-105.57724821 113.11848023-169.67772033 41.47677609-135.74217627 41.47677608-203.61326441c0-71.64170414-15.08246403-139.51279228-41.47677608-203.61326441-26.39431205-64.10047213-64.10047213-120.65971222-113.11848023-169.67772033s-105.57724821-86.72416817-169.67772034-113.11848023C651.51279228-0.80377701 583.64170414-15.88624103 512-15.88624103z" p-id="16110" data-spm-anchor-id="a313x.7781069.0.i1" class="selected" fill="#707070"></path></svg>